<svg xmlns="http://www.w3.org/2000/svg" viewBox="0 0 256 256">
  <defs>
    <linearGradient id="g" x1="40" y1="40" x2="216" y2="216" gradientUnits="userSpaceOnUse">
      <stop stop-color="#22D3EE"/><stop offset="0.52" stop-color="#7B5CFF"/><stop offset="1" stop-color="#A855F7"/>
    </linearGradient>
    <radialGradient id="glow" cx="50%" cy="46%" r="55%">
      <stop offset="0%" stop-color="#7B5CFF" stop-opacity="0.55"/><stop offset="100%" stop-color="#7B5CFF" stop-opacity="0"/>
    </radialGradient>
  </defs>
  <rect width="256" height="256" rx="60" fill="#06060F"/>
  <rect x="6" y="6" width="244" height="244" rx="56" fill="none" stroke="url(#g)" stroke-opacity="0.3" stroke-width="2"/>
  <circle cx="128" cy="128" r="96" fill="url(#glow)"/>
  <g stroke="url(#g)" stroke-width="6" stroke-linecap="round" stroke-linejoin="round" fill="none">
    <path d="M128 66 L181.7 97 L181.7 159 L128 190 L74.3 159 L74.3 97 Z" stroke-opacity="0.5"/>
    <line x1="128" y1="128" x2="128" y2="66"/><line x1="128" y1="128" x2="181.7" y2="97"/><line x1="128" y1="128" x2="181.7" y2="159"/><line x1="128" y1="128" x2="128" y2="190"/><line x1="128" y1="128" x2="74.3" y2="159"/><line x1="128" y1="128" x2="74.3" y2="97"/>
  </g>
  <g fill="url(#g)">
    <circle cx="128" cy="66" r="11"/><circle cx="181.7" cy="97" r="11"/><circle cx="181.7" cy="159" r="11"/><circle cx="128" cy="190" r="11"/><circle cx="74.3" cy="159" r="11"/><circle cx="74.3" cy="97" r="11"/>
    <circle cx="128" cy="128" r="20"/>
  </g>
  <circle cx="128" cy="128" r="8" fill="#06060F"/>
</svg>
